<svg width="3980.73" xmlns="http://www.w3.org/2000/svg" height="591.8" id="screenshot-cdc2bdcf-8917-8023-8007-170d7e683a88" viewBox="0 0 3980.73 591.8" xmlns:xlink="http://www.w3.org/1999/xlink" fill="none" version="1.1"><g id="shape-cdc2bdcf-8917-8023-8007-170d7e683a88" rx="0" ry="0"><g id="shape-cdc2bdcf-8917-8023-8007-170d7e683a89" rx="0" ry="0" style="fill: rgb(0, 0, 0);"><g id="shape-cdc2bdcf-8917-8023-8007-170d7e683a8e"><g class="fills" id="fills-cdc2bdcf-8917-8023-8007-170d7e683a8e"><path d="M743.9652099609375,234.25C725.4251708984375,221.77001953125,676.7052001953125,216.44000244140625,641.2852783203125,225.97998046875C639.375244140625,190.70001220703125,621.1851806640625,160.969970703125,587.9052734375,135.030029296875L575.5853271484375,126.760009765625L567.375244140625,139.1600341796875C551.2352294921875,163.6600341796875,544.4351806640625,196.29998779296875,546.8453369140625,225.969970703125C548.7452392578125,244.25,555.105224609375,264.79998779296875,567.375244140625,279.7099609375C521.2752685546875,306.45001220703125,478.7852478027344,300.3800048828125,290.6051940917969,300.3800048828125L0.0652238205075264,300.3800048828125C-0.7847517728805542,342.8699951171875,6.045204162597656,424.6099853515625,58.025245666503906,491.1500244140625C63.765235900878906,498.5,70.06522369384766,505.6099853515625,76.8952407836914,512.4600219726562C119.1552505493164,554.780029296875,183.00523376464844,585.8099975585938,278.4851989746094,585.9000244140625C424.1452331542969,586.030029296875,548.9451904296875,507.29998779296875,624.855224609375,316.92999267578125C649.8353271484375,317.3399658203125,715.7752685546875,321.4100341796875,748.0452880859375,259.04998779296875C748.8353271484375,258,756.2552490234375,242.510009765625,756.2552490234375,242.510009765625L743.9552001953125,234.239990234375L743.9652099609375,234.25" class="cls-1" style="fill: rgb(255, 255, 255); fill-opacity: 1;"/></g></g></g><g id="shape-cdc2bdcf-8917-8023-8007-170d7e683a8a" rx="0" ry="0"><g id="shape-cdc2bdcf-8917-8023-8007-170d7e683a90" width="139.5" height="300" rx="0" ry="0" style="fill: rgb(0, 0, 0);"><g id="shape-cdc2bdcf-8917-8023-8007-170d7e683a92" rx="0" ry="0" style="opacity: 1; fill: rgb(255, 255, 255); fill-opacity: 1;"><g id="shape-cdc2bdcf-8917-8023-8007-170d7e683a93"><g class="fills" id="fills-cdc2bdcf-8917-8023-8007-170d7e683a93"><path d="M130.40000915527344,247.75L100.0999526977539,247.75L100.0999526977539,217.45001220703125L127.4000015258789,217.45001220703125L127.4000015258789,190.1500244140625L154.6999969482422,190.1500244140625L154.6999969482422,163.1500244140625L181.99998474121094,163.1500244140625L181.99998474121094,135.8499755859375L209.2999725341797,135.8499755859375L209.2999725341797,111.8499755859375L181.99998474121094,111.8499755859375L181.99998474121094,84.8499755859375L154.6999969482422,84.8499755859375L154.6999969482422,57.54998779296875L127.4000015258789,57.54998779296875L127.4000015258789,30.54998779296875L100.0999526977539,30.54998779296875L100.0999526977539,0.25L130.40000915527344,0.25L130.40000915527344,27.54998779296875L157.6999969482422,27.54998779296875L157.6999969482422,54.54998779296875L184.99998474121094,54.54998779296875L184.99998474121094,81.85000610351562L211.99998474121094,81.85000610351562L211.99998474121094,109.1500244140625L239.59996032714844,109.1500244140625L239.59996032714844,138.8499755859375L211.99998474121094,138.8499755859375L211.99998474121094,166.1500244140625L184.99998474121094,166.1500244140625L184.99998474121094,193.1500244140625L157.6999969482422,193.1500244140625L157.6999969482422,220.45001220703125L130.40000915527344,220.45001220703125L130.40000915527344,247.75Z" style="fill: rgb(255, 255, 255); fill-opacity: 1;"/></g></g></g></g><g id="shape-cdc2bdcf-8917-8023-8007-170d7e683a91"><g class="fills" id="fills-cdc2bdcf-8917-8023-8007-170d7e683a91"><rect rx="0" ry="0" x="239.99997724166133" y="218" transform="matrix(1.000000, 0.000000, 0.000000, 1.000000, 0.000000, 0.000000)" width="180" height="30" style="fill: rgb(255, 255, 255); fill-opacity: 1;"/></g></g></g><g id="shape-cdc2bdcf-8917-8023-8007-170d7e683a8d" rx="0" ry="0"><g id="shape-cdc2bdcf-8917-8023-8007-170da088c39f" width="3113.281" height="586" rx="0" ry="0" style="fill: rgb(0, 0, 0);"><g id="shape-cdc2bdcf-8917-8023-8007-170da08b9cd0" rx="0" ry="0" style="opacity: 1; fill: rgb(255, 255, 255); fill-opacity: 1;"><g id="shape-cdc2bdcf-8917-8023-8007-170da08a917e"><g class="fills" id="fills-cdc2bdcf-8917-8023-8007-170da08a917e"><path d="M956.52001953125,582.030029296875L867.449951171875,582.030029296875L867.449951171875,0L1076.050048828125,0C1120.836669921875,0,1158.2066650390625,8.3333740234375,1188.1600341796875,25C1218.106689453125,41.66668701171875,1240.5,64.193359375,1255.3399658203125,92.58001708984375C1270.1866455078125,120.96002197265625,1277.6099853515625,153.1199951171875,1277.6099853515625,189.06005859375L1277.6099853515625,189.06005859375C1277.6099853515625,225,1270.123291015625,257.2266845703125,1255.1500244140625,285.739990234375C1240.1766357421875,314.25335693359375,1217.7166748046875,336.780029296875,1187.77001953125,353.32000732421875C1157.816650390625,369.8533935546875,1120.316650390625,378.12005615234375,1075.27001953125,378.12005615234375L1075.27001953125,378.12005615234375L932.68994140625,378.12005615234375L932.68994140625,302.73004150390625L1066.6700439453125,302.73004150390625C1095.316650390625,302.73004150390625,1118.493408203125,297.7833251953125,1136.199951171875,287.8900146484375C1153.913330078125,277.9967041015625,1166.8699951171875,264.453369140625,1175.070068359375,247.260009765625C1183.276611328125,230.0733642578125,1187.3800048828125,210.67333984375,1187.3800048828125,189.06005859375L1187.3800048828125,189.06005859375C1187.3800048828125,167.18670654296875,1183.276611328125,147.72003173828125,1175.070068359375,130.6600341796875C1166.8699951171875,113.606689453125,1153.8499755859375,100.260009765625,1136.010009765625,90.6199951171875C1118.1700439453125,80.9866943359375,1094.796630859375,76.1700439453125,1065.8900146484375,76.1700439453125L1065.8900146484375,76.1700439453125L956.52001953125,76.1700439453125L956.52001953125,582.030029296875ZM1749.47998046875,582.030029296875L1380.72998046875,582.030029296875L1380.72998046875,0L1747.14013671875,0L1747.14013671875,76.56005859375L1469.800048828125,76.56005859375L1469.800048828125,250L1727.219970703125,250L1727.219970703125,326.1700439453125L1469.800048828125,326.1700439453125L1469.800048828125,505.47003173828125L1749.47998046875,505.47003173828125L1749.47998046875,582.030029296875ZM1953.39013671875,582.030029296875L1863.16015625,582.030029296875L1863.16015625,0L1965.89013671875,0L2185.030029296875,346.48004150390625C2192.3232421875,357.9400634765625,2200.526611328125,371.61334228515625,2209.64013671875,387.50006103515625C2218.75341796875,403.38671875,2228.39013671875,421.2900390625,2238.550048828125,441.21002197265625C2248.703369140625,461.1300048828125,2258.72998046875,482.80999755859375,2268.6298828125,506.25L2268.6298828125,506.25L2257.68994140625,506.25C2255.34326171875,484.11669921875,2253.58349609375,462.17669677734375,2252.41015625,440.4300537109375C2251.2431640625,418.683349609375,2250.39990234375,398.30670166015625,2249.8798828125,379.300048828125C2249.353515625,360.28668212890625,2249.08984375,344.27001953125,2249.08984375,331.25L2249.08984375,331.25L2249.08984375,0L2339.330078125,0L2339.330078125,582.030029296875L2236.199951171875,582.030029296875L2039.719970703125,272.260009765625C2029.300048828125,255.3333740234375,2019.07666015625,238.2767333984375,2009.050048828125,221.09002685546875C1999.030029296875,203.9033203125,1987.96337890625,184.04669189453125,1975.85009765625,161.52001953125C1963.7431640625,138.993408203125,1948.966796875,111.586669921875,1931.52001953125,79.300048828125L1931.52001953125,79.300048828125L1945.580078125,79.300048828125C1946.8798828125,107.9400634765625,1948.18017578125,134.6966552734375,1949.47998046875,159.570068359375C1950.78662109375,184.43670654296875,1951.76318359375,206.4400634765625,1952.41015625,225.58001708984375C1953.0634765625,244.7266845703125,1953.39013671875,260.0267333984375,1953.39013671875,271.48004150390625L1953.39013671875,271.48004150390625L1953.39013671875,582.030029296875ZM3034.25,582.030029296875L2681.52001953125,582.030029296875L2681.52001953125,0L2770.580078125,0L2770.580078125,505.47003173828125L3034.25,505.47003173828125L3034.25,582.030029296875ZM3249.47998046875,591.800048828125L3249.47998046875,591.800048828125C3221.8798828125,591.800048828125,3196.8798828125,586.65673828125,3174.47998046875,576.3699951171875C3152.086669921875,566.0833740234375,3134.3798828125,551.0433349609375,3121.360107421875,531.25C3108.340087890625,511.4566650390625,3101.830078125,487.2366943359375,3101.830078125,458.59002685546875L3101.830078125,458.59002685546875C3101.830078125,433.85003662109375,3106.583251953125,413.53668212890625,3116.090087890625,397.6500244140625C3125.590087890625,381.77001953125,3138.47998046875,369.1400146484375,3154.760009765625,359.760009765625C3171.033447265625,350.38671875,3189.1298828125,343.356689453125,3209.050048828125,338.6700439453125C3228.9765625,333.9833984375,3249.2265625,330.4666748046875,3269.800048828125,328.1199951171875L3269.800048828125,328.1199951171875C3295.580078125,325,3316.543212890625,322.46337890625,3332.68994140625,320.510009765625C3348.836669921875,318.55670166015625,3360.75,315.300048828125,3368.429931640625,310.739990234375C3376.110107421875,306.1800537109375,3379.949951171875,298.8233642578125,3379.949951171875,288.6700439453125L3379.949951171875,288.6700439453125L3379.949951171875,286.33001708984375C3379.949951171875,269.92333984375,3376.82666015625,256.1199951171875,3370.580078125,244.9200439453125C3364.32666015625,233.72003173828125,3355.0166015625,225.06005859375,3342.64990234375,218.9400634765625C3330.276611328125,212.820068359375,3314.8466796875,209.760009765625,3296.360107421875,209.760009765625L3296.360107421875,209.760009765625C3277.3466796875,209.760009765625,3261.006591796875,212.6900634765625,3247.340087890625,218.550048828125C3233.666748046875,224.4100341796875,3222.5966796875,231.896728515625,3214.1298828125,241.010009765625C3205.669921875,250.1300048828125,3199.356689453125,259.63671875,3195.18994140625,269.530029296875L3195.18994140625,269.530029296875L3114.330078125,248.4400634765625C3124.223388671875,222.39337158203125,3138.416748046875,201.4300537109375,3156.909912109375,185.550048828125C3175.396728515625,169.663330078125,3196.6201171875,158.0733642578125,3220.580078125,150.780029296875C3244.5400390625,143.4866943359375,3269.280029296875,139.84002685546875,3294.800048828125,139.84002685546875L3294.800048828125,139.84002685546875C3312.506591796875,139.84002685546875,3331.256591796875,141.92333984375,3351.050048828125,146.09002685546875C3370.836669921875,150.2567138671875,3389.456787109375,157.81005859375,3406.909912109375,168.75C3424.356689453125,179.683349609375,3438.546875,195.04669189453125,3449.47998046875,214.84002685546875C3460.419921875,234.63336181640625,3465.8896484375,260.41668701171875,3465.8896484375,292.1900634765625L3465.8896484375,292.1900634765625L3465.8896484375,582.030029296875L3382.68994140625,582.030029296875L3382.68994140625,522.260009765625L3378.389892578125,522.260009765625C3372.663330078125,533.4600219726562,3364.199951171875,544.4000244140625,3353,555.0800170898438C3341.800048828125,565.7533569335938,3327.67333984375,574.5400390625,3310.6201171875,581.4400634765625C3293.56005859375,588.3466796875,3273.179931640625,591.800048828125,3249.47998046875,591.800048828125ZM3268.6298828125,522.6500244140625L3268.6298828125,522.6500244140625C3292.063232421875,522.6500244140625,3312.11328125,518.0933227539062,3328.780029296875,508.98004150390625C3345.44677734375,499.86669921875,3358.206787109375,487.7567138671875,3367.06005859375,472.6500244140625C3375.913330078125,457.550048828125,3380.340087890625,441.53668212890625,3380.340087890625,424.61004638671875L3380.340087890625,424.61004638671875L3380.340087890625,368.75006103515625C3377.219970703125,371.876708984375,3371.296630859375,374.67669677734375,3362.570068359375,377.1500244140625C3353.84326171875,379.62335205078125,3343.88330078125,381.83673095703125,3332.68994140625,383.7900390625C3321.489990234375,385.74334716796875,3310.683349609375,387.37005615234375,3300.27001953125,388.6700439453125C3289.85009765625,389.97003173828125,3281.25341796875,391.01336669921875,3274.47998046875,391.800048828125L3274.47998046875,391.800048828125C3258.340087890625,393.88006591796875,3243.563232421875,397.39337158203125,3230.14990234375,402.34002685546875C3216.736572265625,407.28668212890625,3206.06005859375,414.32000732421875,3198.1201171875,423.4400634765625C3190.17333984375,432.5533447265625,3186.199951171875,444.6600341796875,3186.199951171875,459.760009765625L3186.199951171875,459.760009765625C3186.199951171875,473.56671142578125,3189.783447265625,485.15667724609375,3196.949951171875,494.530029296875C3204.110107421875,503.90338134765625,3213.81005859375,510.933349609375,3226.050048828125,515.6199951171875C3238.2900390625,520.3067016601562,3252.4833984375,522.6500244140625,3268.6298828125,522.6500244140625ZM3798.31005859375,590.6199951171875L3798.31005859375,590.6199951171875C3772.009765625,590.6199951171875,3750.4599609375,586.1300048828125,3733.66015625,577.1500244140625C3716.86669921875,568.163330078125,3703.716796875,557.6800537109375,3694.2099609375,545.7000122070312C3684.703125,533.7200317382812,3677.3466796875,523.0433349609375,3672.1396484375,513.6700439453125L3672.1396484375,513.6700439453125L3665.1103515625,513.6700439453125L3665.1103515625,582.030029296875L3581.52001953125,582.030029296875L3581.52001953125,0L3667.4501953125,0L3667.4501953125,216.4000244140625L3672.1396484375,216.4000244140625C3677.3466796875,207.28668212890625,3684.5732421875,196.739990234375,3693.8203125,184.760009765625C3703.06640625,172.78668212890625,3715.95703125,162.30670166015625,3732.490234375,153.320068359375C3749.0302734375,144.3333740234375,3770.9697265625,139.84002685546875,3798.31005859375,139.84002685546875L3798.31005859375,139.84002685546875C3833.2099609375,139.84002685546875,3864.396484375,148.693359375,3891.8701171875,166.4000244140625C3919.34326171875,184.1134033203125,3941.0234375,209.7667236328125,3956.91015625,243.3599853515625C3972.7900390625,276.953369140625,3980.72998046875,317.4466552734375,3980.72998046875,364.84002685546875L3980.72998046875,364.84002685546875C3980.72998046875,411.71337890625,3972.919921875,452.01336669921875,3957.2998046875,485.739990234375C3941.67333984375,519.4666748046875,3920.123046875,545.3800048828125,3892.64990234375,563.4800415039062C3865.1767578125,581.5733642578125,3833.72998046875,590.6199951171875,3798.31005859375,590.6199951171875ZM3779.169921875,517.5800170898438L3779.169921875,517.5800170898438C3804.169921875,517.5800170898438,3825.13330078125,510.80670166015625,3842.06005859375,497.260009765625C3858.986328125,483.72003173828125,3871.68359375,465.36334228515625,3880.14990234375,442.1900634765625C3888.6103515625,419.010009765625,3892.83984375,392.9666748046875,3892.83984375,364.06005859375L3892.83984375,364.06005859375C3892.83984375,335.413330078125,3888.6103515625,309.6966552734375,3880.14990234375,286.9100341796875C3871.68359375,264.12335205078125,3859.05322265625,246.09002685546875,3842.259765625,232.81005859375C3825.4599609375,219.530029296875,3804.4296875,212.8900146484375,3779.169921875,212.8900146484375L3779.169921875,212.8900146484375C3754.68994140625,212.8900146484375,3733.986328125,219.203369140625,3717.06005859375,231.83001708984375C3700.13330078125,244.46337890625,3687.373046875,262.0433349609375,3678.7802734375,284.570068359375C3670.1865234375,307.0966796875,3665.8896484375,333.5933837890625,3665.8896484375,364.06005859375L3665.8896484375,364.06005859375C3665.8896484375,394.2667236328125,3670.25341796875,420.89337158203125,3678.97998046875,443.9400634765625C3687.7001953125,466.9866943359375,3700.5234375,485.02337646484375,3717.4501953125,498.04998779296875C3734.376953125,511.07000732421875,3754.9501953125,517.5800170898438,3779.169921875,517.5800170898438Z" style="fill: rgb(255, 255, 255); fill-opacity: 1;"/></g></g></g></g></g></g></svg>